# xmcd
#
# Track frame offsets: 
#        151
#        9962
#        26969
#        36406
#        48182
#        56141
#        69918
#        83548
#        92627
#        103222
#        110704
#        121945
#        134268
#        144902
#        161353
#        167921
#        181194
#        195561
#        206939
#        217661
#        228451
#
# Disc length: 3224 seconds
#
# Revision: 0
# Processed by: cddbd v1.4PL0 Copyright (c) Steve Scherf et al.
# Submitted via: ExactAudioCopy v0.95a3
#
DISCID=1e0c9615
DTITLE=Buzz Matheson and Mac Martin - Echoes of the Past
DYEAR=1900
DGENRE=Bluegrass
TTITLE0=Darling Do You Know who Loves You
TTITLE1=On the Old Kentucky Shore
TTITLE2=Angels Watching Over Me
TTITLE3=I Can See That You're Living A Lie
TTITLE4=New Memphis Blues
TTITLE5=Childish Love
TTITLE6=One Teardrop and One Step Away
TTITLE7=Jesus Will Save Your Soul
TTITLE8=I've Always Been A Rambler
TTITLE9=Blue Grass Stomp
TTITLE10=Have No Desire To Roam
TTITLE11=I Could Cry
TTITLE12=The Old Chain Gang
TTITLE13=I'll Just Pretend
TTITLE14=Cincinnati Rag
TTITLE15=Emotions
TTITLE16=Just When I needed You
TTITLE17=If You See My Savior
TTITLE18=Rose On God's Shore
TTITLE19=Take My Ring From Your Finger
TTITLE20=We Can't Be Darlings Any More
EXTD=
EXTT0=
EXTT1=
EXTT2=
EXTT3=
EXTT4=
EXTT5=
EXTT6=
EXTT7=
EXTT8=
EXTT9=
EXTT10=
EXTT11=
EXTT12=
EXTT13=
EXTT14=
EXTT15=
EXTT16=
EXTT17=
EXTT18=
EXTT19=
EXTT20=
PLAYORDER=
